<?xml version="1.0" encoding="UTF-8"?>
<!DOCTYPE svg
PUBLIC "-//W3C//DTD SVG 1.1//EN"
       "http://www.w3.org/Graphics/SVG/1.1/DTD/svg11.dtd">
<svg viewBox="81 -10 878 479" width="797px" height="489px" xmlns="http://www.w3.org/2000/svg" version="1.1">
   <line x1="352" y1="72" x2="342" y2="72" style="stroke:#bbb;stroke-width:1;"/>
   <line x1="253" y1="261" x2="243" y2="261" style="stroke:#bbb;stroke-width:1;"/>
   <line x1="342" y1="72" x2="253" y2="261" style="stroke:#bbb;stroke-width:1;"/>
   <line x1="344.5" y1="72" x2="348.03553390593" y2="75.535533905933" style="stroke:#bbb;stroke-width:2;"/>
   <line x1="344.5" y1="72" x2="348.03553390593" y2="68.464466094067" style="stroke:#bbb;stroke-width:2;"/>
   <line x1="248" y1="261" x2="251.53553390593" y2="264.53553390593" style="stroke:#bbb;stroke-width:2;"/>
   <line x1="248" y1="261" x2="251.53553390593" y2="257.46446609407" style="stroke:#bbb;stroke-width:2;"/>
   <line x1="352" y1="92" x2="342" y2="92" style="stroke:#b0b;stroke-width:1;"/>
   <line x1="253" y1="261" x2="243" y2="261" style="stroke:#b0b;stroke-width:1;"/>
   <line x1="342" y1="92" x2="253" y2="261" style="stroke:#b0b;stroke-width:1;"/>
   <line x1="344.5" y1="92" x2="348.03553390593" y2="95.535533905933" style="stroke:#b0b;stroke-width:2;"/>
   <line x1="344.5" y1="92" x2="348.03553390593" y2="88.464466094067" style="stroke:#b0b;stroke-width:2;"/>
   <line x1="248" y1="261" x2="251.53553390593" y2="264.53553390593" style="stroke:#b0b;stroke-width:2;"/>
   <line x1="248" y1="261" x2="251.53553390593" y2="257.46446609407" style="stroke:#b0b;stroke-width:2;"/>
   <line x1="499" y1="112" x2="509" y2="112" style="stroke:#0bf;stroke-width:1;"/>
   <line x1="706" y1="393" x2="716" y2="393" style="stroke:#0bf;stroke-width:1;"/>
   <line x1="509" y1="112" x2="706" y2="393" style="stroke:#0bf;stroke-width:1;"/>
   <line x1="506.5" y1="112" x2="502.96446609407" y2="115.53553390593" style="stroke:#0bf;stroke-width:2;"/>
   <line x1="506.5" y1="112" x2="502.96446609407" y2="108.46446609407" style="stroke:#0bf;stroke-width:2;"/>
   <line x1="711" y1="393" x2="707.46446609407" y2="396.53553390593" style="stroke:#0bf;stroke-width:2;"/>
   <line x1="711" y1="393" x2="707.46446609407" y2="389.46446609407" style="stroke:#0bf;stroke-width:2;"/>
   <line x1="503" y1="414" x2="513" y2="414" style="stroke:#333;stroke-width:1;"/>
   <line x1="706" y1="393" x2="716" y2="393" style="stroke:#333;stroke-width:1;"/>
   <line x1="513" y1="414" x2="706" y2="393" style="stroke:#333;stroke-width:1;"/>
   <line x1="510.5" y1="414" x2="506.96446609407" y2="417.53553390593" style="stroke:#333;stroke-width:2;"/>
   <line x1="510.5" y1="414" x2="506.96446609407" y2="410.46446609407" style="stroke:#333;stroke-width:2;"/>
   <line x1="711" y1="393" x2="707.46446609407" y2="396.53553390593" style="stroke:#333;stroke-width:2;"/>
   <line x1="711" y1="393" x2="707.46446609407" y2="389.46446609407" style="stroke:#333;stroke-width:2;"/>
   <line x1="503" y1="434" x2="513" y2="434" style="stroke:#b0b;stroke-width:1;"/>
   <line x1="706" y1="393" x2="716" y2="393" style="stroke:#b0b;stroke-width:1;"/>
   <line x1="513" y1="434" x2="706" y2="393" style="stroke:#b0b;stroke-width:1;"/>
   <line x1="510.5" y1="434" x2="506.96446609407" y2="437.53553390593" style="stroke:#b0b;stroke-width:2;"/>
   <line x1="510.5" y1="434" x2="506.96446609407" y2="430.46446609407" style="stroke:#b0b;stroke-width:2;"/>
   <line x1="711" y1="393" x2="707.46446609407" y2="396.53553390593" style="stroke:#b0b;stroke-width:2;"/>
   <line x1="711" y1="393" x2="707.46446609407" y2="389.46446609407" style="stroke:#b0b;stroke-width:2;"/>
   <line x1="96" y1="301" x2="86" y2="301" style="stroke:#cb0;stroke-width:1;"/>
   <line x1="103" y1="419" x2="113" y2="419" style="stroke:#cb0;stroke-width:1;"/>
   <line x1="86" y1="301" x2="103" y2="419" style="stroke:#cb0;stroke-width:1;"/>
   <line x1="88.5" y1="301" x2="92.035533905933" y2="304.53553390593" style="stroke:#cb0;stroke-width:2;"/>
   <line x1="88.5" y1="301" x2="92.035533905933" y2="297.46446609407" style="stroke:#cb0;stroke-width:2;"/>
   <line x1="108" y1="419" x2="104.46446609407" y2="422.53553390593" style="stroke:#cb0;stroke-width:2;"/>
   <line x1="108" y1="419" x2="104.46446609407" y2="415.46446609407" style="stroke:#cb0;stroke-width:2;"/>
   <line x1="391" y1="254" x2="381" y2="254" style="stroke:#333;stroke-width:1;"/>
   <line x1="253" y1="261" x2="243" y2="261" style="stroke:#333;stroke-width:1;"/>
   <line x1="381" y1="254" x2="253" y2="261" style="stroke:#333;stroke-width:1;"/>
   <line x1="383.5" y1="254" x2="387.03553390593" y2="257.53553390593" style="stroke:#333;stroke-width:2;"/>
   <line x1="383.5" y1="254" x2="387.03553390593" y2="250.46446609407" style="stroke:#333;stroke-width:2;"/>
   <line x1="248" y1="261" x2="251.53553390593" y2="264.53553390593" style="stroke:#333;stroke-width:2;"/>
   <line x1="248" y1="261" x2="251.53553390593" y2="257.46446609407" style="stroke:#333;stroke-width:2;"/>
   <line x1="538" y1="274" x2="548" y2="274" style="stroke:#c00;stroke-width:1;"/>
   <line x1="706" y1="393" x2="716" y2="393" style="stroke:#c00;stroke-width:1;"/>
   <line x1="548" y1="274" x2="706" y2="393" style="stroke:#c00;stroke-width:1;"/>
   <line x1="545.5" y1="274" x2="541.96446609407" y2="277.53553390593" style="stroke:#c00;stroke-width:2;"/>
   <line x1="545.5" y1="274" x2="541.96446609407" y2="270.46446609407" style="stroke:#c00;stroke-width:2;"/>
   <line x1="711" y1="393" x2="707.46446609407" y2="396.53553390593" style="stroke:#c00;stroke-width:2;"/>
   <line x1="711" y1="393" x2="707.46446609407" y2="389.46446609407" style="stroke:#c00;stroke-width:2;"/>
   <line x1="663" y1="84" x2="653" y2="84" style="stroke:#b0b;stroke-width:1;"/>
   <line x1="706" y1="393" x2="716" y2="393" style="stroke:#b0b;stroke-width:1;"/>
   <line x1="653" y1="84" x2="706" y2="393" style="stroke:#b0b;stroke-width:1;"/>
   <line x1="655.5" y1="84" x2="659.03553390593" y2="87.535533905933" style="stroke:#b0b;stroke-width:2;"/>
   <line x1="655.5" y1="84" x2="659.03553390593" y2="80.464466094067" style="stroke:#b0b;stroke-width:2;"/>
   <line x1="711" y1="393" x2="707.46446609407" y2="396.53553390593" style="stroke:#b0b;stroke-width:2;"/>
   <line x1="711" y1="393" x2="707.46446609407" y2="389.46446609407" style="stroke:#b0b;stroke-width:2;"/>
   <rect width="147" height="20" x="708" y="197" style="fill:#007;stroke:black;"/>
   <text width="147" height="20" x="713" y="211" style="fill:#fff;" font-family="Arial" font-size="16px"> ir</text>
   <rect width="147" height="20" x="708" y="217" style="fill:#aea;stroke:black;"/>
   <text width="147" height="20" x="713" y="231" style="fill:black;" font-family="Arial" font-size="16px">jumlah</text>
   <rect width="147" height="20" x="708" y="237" style="fill:none;stroke:black;"/>
   <text width="147" height="20" x="713" y="251" style="fill:black;" font-family="Arial" font-size="16px">nilai</text>
   <rect width="147" height="20" x="113" y="369" style="fill:#007;stroke:black;"/>
   <text width="147" height="20" x="118" y="383" style="fill:#fff;" font-family="Arial" font-size="16px"> jabatan</text>
   <rect width="147" height="20" x="113" y="389" style="fill:#aea;stroke:black;"/>
   <text width="147" height="20" x="118" y="403" style="fill:black;" font-family="Arial" font-size="16px">id_jabatan</text>
   <rect width="147" height="20" x="113" y="409" style="fill:none;stroke:black;"/>
   <text width="147" height="20" x="118" y="423" style="fill:black;" font-family="Arial" font-size="16px">nama_jabatan</text>
   <rect width="147" height="20" x="113" y="429" style="fill:none;stroke:black;"/>
   <text width="147" height="20" x="118" y="443" style="fill:black;" font-family="Arial" font-size="16px">job_desc</text>
   <rect width="147" height="20" x="352" y="22" style="fill:#007;stroke:black;"/>
   <text width="147" height="20" x="357" y="36" style="fill:#fff;" font-family="Arial" font-size="16px"> tb_banding_alternatif</text>
   <rect width="147" height="20" x="352" y="42" style="fill:#aea;stroke:black;"/>
   <text width="147" height="20" x="357" y="56" style="fill:black;" font-family="Arial" font-size="16px">id</text>
   <rect width="147" height="20" x="352" y="62" style="fill:none;stroke:black;"/>
   <text width="147" height="20" x="357" y="76" style="fill:black;" font-family="Arial" font-size="16px">alternatif1</text>
   <rect width="147" height="20" x="352" y="82" style="fill:none;stroke:black;"/>
   <text width="147" height="20" x="357" y="96" style="fill:black;" font-family="Arial" font-size="16px">alternatif2</text>
   <rect width="147" height="20" x="352" y="102" style="fill:none;stroke:black;"/>
   <text width="147" height="20" x="357" y="116" style="fill:black;" font-family="Arial" font-size="16px">pembanding</text>
   <rect width="147" height="20" x="352" y="122" style="fill:none;stroke:black;"/>
   <text width="147" height="20" x="357" y="136" style="fill:black;" font-family="Arial" font-size="16px">nilai</text>
   <rect width="147" height="20" x="356" y="364" style="fill:#007;stroke:black;"/>
   <text width="147" height="20" x="361" y="378" style="fill:#fff;" font-family="Arial" font-size="16px"> tb_banding_kriteria</text>
   <rect width="147" height="20" x="356" y="384" style="fill:#aea;stroke:black;"/>
   <text width="147" height="20" x="361" y="398" style="fill:black;" font-family="Arial" font-size="16px">id</text>
   <rect width="147" height="20" x="356" y="404" style="fill:none;stroke:black;"/>
   <text width="147" height="20" x="361" y="418" style="fill:black;" font-family="Arial" font-size="16px">kriteria1</text>
   <rect width="147" height="20" x="356" y="424" style="fill:none;stroke:black;"/>
   <text width="147" height="20" x="361" y="438" style="fill:black;" font-family="Arial" font-size="16px">kriteria2</text>
   <rect width="147" height="20" x="356" y="444" style="fill:none;stroke:black;"/>
   <text width="147" height="20" x="361" y="458" style="fill:black;" font-family="Arial" font-size="16px">nilai</text>
   <rect width="147" height="20" x="96" y="231" style="fill:#007;stroke:black;"/>
   <text width="147" height="20" x="101" y="245" style="fill:#fff;" font-family="Arial" font-size="16px"> tb_karyawan</text>
   <rect width="147" height="20" x="96" y="251" style="fill:#aea;stroke:black;"/>
   <text width="147" height="20" x="101" y="265" style="fill:black;" font-family="Arial" font-size="16px">id_karyawan</text>
   <rect width="147" height="20" x="96" y="271" style="fill:none;stroke:black;"/>
   <text width="147" height="20" x="101" y="285" style="fill:black;" font-family="Arial" font-size="16px">nama_karyawan</text>
   <rect width="147" height="20" x="96" y="291" style="fill:none;stroke:black;"/>
   <text width="147" height="20" x="101" y="305" style="fill:black;" font-family="Arial" font-size="16px">jabatan</text>
   <rect width="147" height="20" x="716" y="363" style="fill:#007;stroke:black;"/>
   <text width="147" height="20" x="721" y="377" style="fill:#fff;" font-family="Arial" font-size="16px"> tb_kriteria</text>
   <rect width="147" height="20" x="716" y="383" style="fill:#aea;stroke:black;"/>
   <text width="147" height="20" x="721" y="397" style="fill:black;" font-family="Arial" font-size="16px">kriteria_id</text>
   <rect width="147" height="20" x="716" y="403" style="fill:none;stroke:black;"/>
   <text width="147" height="20" x="721" y="417" style="fill:black;" font-family="Arial" font-size="16px">kriteria_deskripsi</text>
   <rect width="147" height="20" x="716" y="423" style="fill:none;stroke:black;"/>
   <text width="147" height="20" x="721" y="437" style="fill:black;" font-family="Arial" font-size="16px">kriteria_nama</text>
   <rect width="147" height="20" x="391" y="204" style="fill:#007;stroke:black;"/>
   <text width="147" height="20" x="396" y="218" style="fill:#fff;" font-family="Arial" font-size="16px"> tb_pv_alternatif</text>
   <rect width="147" height="20" x="391" y="224" style="fill:#aea;stroke:black;"/>
   <text width="147" height="20" x="396" y="238" style="fill:black;" font-family="Arial" font-size="16px">id</text>
   <rect width="147" height="20" x="391" y="244" style="fill:none;stroke:black;"/>
   <text width="147" height="20" x="396" y="258" style="fill:black;" font-family="Arial" font-size="16px">id_alternatif</text>
   <rect width="147" height="20" x="391" y="264" style="fill:none;stroke:black;"/>
   <text width="147" height="20" x="396" y="278" style="fill:black;" font-family="Arial" font-size="16px">id_kriteria</text>
   <rect width="147" height="20" x="391" y="284" style="fill:none;stroke:black;"/>
   <text width="147" height="20" x="396" y="298" style="fill:black;" font-family="Arial" font-size="16px">nilai</text>
   <rect width="147" height="20" x="663" y="34" style="fill:#007;stroke:black;"/>
   <text width="147" height="20" x="668" y="48" style="fill:#fff;" font-family="Arial" font-size="16px"> tb_pv_kriteria</text>
   <rect width="147" height="20" x="663" y="54" style="fill:#aea;stroke:black;"/>
   <text width="147" height="20" x="668" y="68" style="fill:black;" font-family="Arial" font-size="16px">id</text>
   <rect width="147" height="20" x="663" y="74" style="fill:none;stroke:black;"/>
   <text width="147" height="20" x="668" y="88" style="fill:black;" font-family="Arial" font-size="16px">id_kriteria</text>
   <rect width="147" height="20" x="663" y="94" style="fill:none;stroke:black;"/>
   <text width="147" height="20" x="668" y="108" style="fill:black;" font-family="Arial" font-size="16px">nilai</text>
   <rect width="147" height="20" x="113" y="5" style="fill:#007;stroke:black;"/>
   <text width="147" height="20" x="118" y="19" style="fill:#fff;" font-family="Arial" font-size="16px"> user</text>
   <rect width="147" height="20" x="113" y="25" style="fill:#aea;stroke:black;"/>
   <text width="147" height="20" x="118" y="39" style="fill:black;" font-family="Arial" font-size="16px">id_users</text>
   <rect width="147" height="20" x="113" y="45" style="fill:none;stroke:black;"/>
   <text width="147" height="20" x="118" y="59" style="fill:black;" font-family="Arial" font-size="16px">nama</text>
   <rect width="147" height="20" x="113" y="65" style="fill:none;stroke:black;"/>
   <text width="147" height="20" x="118" y="79" style="fill:black;" font-family="Arial" font-size="16px">tipe</text>
   <rect width="147" height="20" x="113" y="85" style="fill:none;stroke:black;"/>
   <text width="147" height="20" x="118" y="99" style="fill:black;" font-family="Arial" font-size="16px">username</text>
   <rect width="147" height="20" x="113" y="105" style="fill:none;stroke:black;"/>
   <text width="147" height="20" x="118" y="119" style="fill:black;" font-family="Arial" font-size="16px">password</text>
   <rect width="147" height="20" x="113" y="125" style="fill:none;stroke:black;"/>
   <text width="147" height="20" x="118" y="139" style="fill:black;" font-family="Arial" font-size="16px">foto</text>
</svg>
